<!DOCTYPE svg PUBLIC "-//W3C//DTD SVG 1.1//EN" "http://www.w3.org/Graphics/SVG/1.1/DTD/svg11.dtd">
<!-- Uploaded to: SVG Repo, www.svgrepo.com, Transformed by: SVG Repo Mixer Tools -->
<svg height="158px" width="158px" version="1.1" id="Capa_1" xmlns="http://www.w3.org/2000/svg" xmlns:xlink="http://www.w3.org/1999/xlink" viewBox="-0.99 -0.99 26.81 26.81" xml:space="preserve" fill="#000000" stroke="#000000" stroke-width="0.00024834">
<g id="SVGRepo_bgCarrier" stroke-width="0"/>
<g id="SVGRepo_tracerCarrier" stroke-linecap="round" stroke-linejoin="round" stroke="#CCCCCC" stroke-width="0.049668000000000004"/>
<g id="SVGRepo_iconCarrier"> <g> <g> <path style="fill:#9a979b;" d="M6.301,16.501c0,0,3.829-8.827,4.407-10.546c0.182-0.481,0.285-1,0.285-1.543 C10.993,1.976,9.017,0,6.579,0c-2.436,0-4.41,1.976-4.41,4.413c0,0.476,0.078,0.931,0.215,1.361 C2.697,6.877,6.301,16.501,6.301,16.501z M6.579,2.359c1.134,0,2.053,0.919,2.053,2.053c0,1.133-0.919,2.052-2.053,2.052 c-1.133,0-2.051-0.919-2.051-2.052C4.527,3.279,5.446,2.359,6.579,2.359z"/> <path style="fill:#9a979b;" d="M24.795,11.637C24.389,5.154,19,0,12.417,0c-0.841,0-1.663,0.087-2.459,0.247 c0.514,0.417,0.947,0.929,1.278,1.506c0.132-0.04,0.264-0.084,0.4-0.11v0.986c0.198,0.559,0.311,1.158,0.311,1.784 c0,0.638-0.116,1.271-0.346,1.879c-0.017,0.049-0.044,0.121-0.065,0.181c0.034,0,0.066-0.006,0.1-0.007v5.171h-2.21 c-0.225,0.53-0.448,1.055-0.664,1.56h2.875v5.174c-1.712-0.071-3.319-0.379-4.736-0.853L6.236,19.05l-0.83-2.215 c-0.052-0.138-0.507-1.355-1.09-2.923c0.074,0.919,0.195,1.814,0.394,2.661c-1.615-0.904-2.719-2.084-3.041-3.378h2.382 c-0.188-0.505-0.381-1.029-0.577-1.56H1.669c0.167-0.673,0.552-1.314,1.104-1.903C2.252,8.307,1.8,7.054,1.583,6.401 c-0.873,1.57-1.425,3.342-1.544,5.233l0.001,1.56c0.405,6.486,5.793,11.64,12.377,11.64c6.583,0,11.972-5.154,12.378-11.638 V11.637z M2.639,17.105c0.767,0.593,1.675,1.112,2.704,1.539c0.475,1.232,1.081,2.333,1.796,3.252 C5.188,20.806,3.613,19.127,2.639,17.105z M11.637,23.19c-1.743-0.336-3.282-1.777-4.343-3.893 c1.333,0.357,2.794,0.575,4.343,0.63V23.19z M22.195,7.731c-0.768-0.593-1.676-1.114-2.704-1.54 c-0.474-1.234-1.081-2.336-1.797-3.253C19.647,4.029,21.223,5.708,22.195,7.731z M13.196,1.643 c1.743,0.337,3.283,1.779,4.345,3.894c-1.334-0.357-2.796-0.574-4.345-0.63C13.196,4.907,13.196,1.643,13.196,1.643z M13.196,6.466c1.857,0.078,3.603,0.421,5.103,0.968c0.406,1.275,0.657,2.696,0.723,4.204h-5.825L13.196,6.466L13.196,6.466z M13.196,13.196h5.825c-0.065,1.507-0.316,2.93-0.723,4.205c-1.499,0.545-3.244,0.891-5.103,0.969v-5.174H13.196z M13.196,23.19 v-3.263c1.549-0.056,3.01-0.272,4.344-0.63C16.48,21.413,14.94,22.855,13.196,23.19z M17.693,21.896 c0.717-0.917,1.323-2.02,1.798-3.252c1.028-0.427,1.937-0.946,2.704-1.539C21.221,19.127,19.646,20.806,17.693,21.896z M20.123,16.575c0.251-1.067,0.408-2.199,0.457-3.378h2.585C22.842,14.491,21.739,15.67,20.123,16.575z M20.58,11.637 c-0.049-1.178-0.205-2.31-0.457-3.377c1.615,0.905,2.719,2.083,3.042,3.377H20.58z"/> </g> </g> </g>
</svg>